<svg width="48" height="36" viewBox="0 0 48 36" fill="none" xmlns="http://www.w3.org/2000/svg">
<path d="M45.5228 15.7178V3.88691C45.5228 2.26576 44.2039 0.946808 42.5827 0.946808H5.41727C3.79611 0.946808 2.47716 2.26576 2.47716 3.88691V15.7179C1.07661 15.931 0 17.1432 0 18.6024V25.9252C0 26.4365 0.414548 26.8511 0.925881 26.8511H1.91781V31.4188C1.91781 31.9301 2.33236 32.3447 2.84369 32.3447H4.51509V34.1274C4.51509 34.6387 4.92964 35.0533 5.44097 35.0533C5.9523 35.0533 6.36685 34.6387 6.36685 34.1274V32.3447H41.6333V34.1274C41.6333 34.6387 42.0477 35.0533 42.5592 35.0533C43.0706 35.0533 43.485 34.6387 43.485 34.1274V32.3447H45.1564C45.6679 32.3447 46.0823 31.9301 46.0823 31.4188V26.8511H47.0741C47.5856 26.8511 48 26.4365 48 25.9252V18.6024C48 17.1432 46.9234 15.9309 45.5228 15.7178ZM4.3288 3.88691C4.3288 3.28682 4.81705 2.79857 5.41714 2.79857H42.5826C43.1827 2.79857 43.671 3.28682 43.671 3.88691V15.6846H40.4199C41.0668 14.9882 41.7248 14.2559 42.4062 13.4724C42.7093 13.1239 42.7091 12.6054 42.4061 12.257C39.7274 9.17838 37.4847 6.93565 34.407 4.25788C34.0586 3.95469 33.54 3.95469 33.1915 4.25788C30.1136 6.93577 27.871 9.1785 25.1925 12.257C24.8894 12.6054 24.8893 13.1239 25.1923 13.4724C25.8739 14.256 26.5318 14.9883 27.1787 15.6846H20.8206C21.4675 14.9882 22.1256 14.2559 22.807 13.4724C23.1101 13.1239 23.1101 12.6054 22.8069 12.257C20.1286 9.17887 17.8859 6.93614 14.8078 4.25788C14.4594 3.95469 13.9408 3.95469 13.5923 4.25788C10.5142 6.93614 8.27145 9.17887 5.59318 12.257C5.28999 12.6054 5.28999 13.1239 5.59306 13.4724C6.27463 14.2559 6.93262 14.9882 7.57951 15.6846H4.3288V3.88691ZM29.7335 15.6846C28.8816 14.8101 28.021 13.8809 27.1225 12.8647C29.3358 10.3603 31.2955 8.40064 33.7993 6.18779C36.3032 8.40052 38.2628 10.3603 40.4763 12.8647C39.5779 13.8809 38.7172 14.8101 37.8653 15.6846H29.7335ZM10.1344 15.6846C9.28251 14.81 8.42181 13.8809 7.52334 12.8647C9.73631 10.3608 11.6963 8.40076 14.2003 6.18779C16.7042 8.40076 18.6643 10.3608 20.8773 12.8647C19.9789 13.8809 19.1182 14.81 18.2661 15.6846H10.1344ZM44.2306 30.4929H3.76957V26.8511H44.2306V30.4929ZM46.1482 24.9993H1.85176V18.6024C1.85176 18.0146 2.33001 17.5364 2.91788 17.5364H45.0821C45.67 17.5364 46.1482 18.0146 46.1482 18.6024V24.9993Z" fill="black"/>
</svg>
