<svg width="46" height="46" viewBox="0 0 46 46" fill="none" xmlns="http://www.w3.org/2000/svg">
<g clip-path="url(#clip0)">
<path d="M43.6057 20.2102L39.9106 18.5229L36.6491 13.3196C35.7065 11.8114 34.0475 10.8971 32.2659 10.9065H18.3717C16.7598 10.9065 15.2328 11.6512 14.2524 12.9331L10.0389 18.4475L3.01639 20.3704C1.23483 20.8606 0 22.4913 0 24.3389V27.0253C0 29.297 1.80983 31.1729 4.08155 31.1729H4.68483C5.41065 33.9724 8.26679 35.6503 11.0664 34.9245C12.9045 34.4438 14.3467 33.011 14.818 31.1729H30.654C31.3799 33.9724 34.236 35.6503 37.0356 34.9245C38.8737 34.4438 40.3159 33.011 40.7872 31.1729H41.9184C44.1901 31.1729 45.9999 29.297 45.9999 27.0253V23.9618C46.0093 22.3499 45.0667 20.8794 43.6057 20.2102ZM9.7467 33.1901C7.89916 33.1901 6.4004 31.6913 6.4004 29.8438C6.4004 27.9962 7.89916 26.4975 9.7467 26.4975C11.5942 26.4975 13.093 27.9962 13.093 29.8438C13.1024 31.6819 11.6037 33.1806 9.7467 33.1901ZM35.7159 33.1901C33.8684 33.1901 32.3696 31.6913 32.3696 29.8438C32.3696 27.9962 33.8684 26.4975 35.7159 26.4975C37.5634 26.4975 39.0622 27.9962 39.0622 29.8438C39.0716 31.6819 37.5729 33.1806 35.7159 33.1901ZM41.9184 29.2876H40.9192C40.6081 26.4126 38.0159 24.3389 35.1409 24.6593C32.6995 24.9233 30.7766 26.8557 30.5126 29.2876H14.95C14.6389 26.4126 12.0467 24.3389 9.1717 24.6593C6.73031 24.9233 4.80737 26.8557 4.54343 29.2876H4.07212C2.83729 29.2876 1.87582 28.2602 1.87582 27.0253V24.3389C1.86639 23.3303 2.53565 22.4536 3.50655 22.1803L10.8496 20.1725C11.0475 20.1159 11.2266 20.0028 11.3492 19.8331L15.7418 14.0737C16.3733 13.2631 17.3442 12.7917 18.3717 12.7917H32.2659C33.3971 12.7823 34.4622 13.3573 35.0561 14.3188L38.4684 19.7671C38.5626 19.9274 38.7134 20.0499 38.8737 20.1253L42.8139 21.9257C43.6057 22.2934 44.1147 23.0852 44.1052 23.9618V27.0253H44.1147C44.1147 28.2602 43.1532 29.2876 41.9184 29.2876Z" fill="black"/>
</g>
<defs>
<clipPath id="clip0">
<rect width="46" height="46" fill="white"/>
</clipPath>
</defs>
</svg>
