<svg width="11" height="21" viewBox="0 0 11 21" fill="none" xmlns="http://www.w3.org/2000/svg">
<path d="M11.8741 0.0043694L9.15092 0C6.09149 0 4.11436 2.02849 4.11436 5.16813V7.55098H1.3763C1.1397 7.55098 0.948105 7.7428 0.948105 7.9794V11.4319C0.948105 11.6685 1.13992 11.8601 1.3763 11.8601H4.11436V20.5718C4.11436 20.8084 4.30596 21 4.54256 21H8.11494C8.35154 21 8.54314 20.8082 8.54314 20.5718V11.8601H11.7446C11.9812 11.8601 12.1728 11.6685 12.1728 11.4319L12.1741 7.9794C12.1741 7.8658 12.1289 7.757 12.0487 7.6766C11.9685 7.5962 11.8593 7.55098 11.7457 7.55098H8.54314V5.53101C8.54314 4.56013 8.7745 4.06726 10.0392 4.06726L11.8737 4.0666C12.1101 4.0666 12.3017 3.87479 12.3017 3.6384V0.432571C12.3017 0.196405 12.1103 0.00480634 11.8741 0.0043694Z" fill="#575757"/>
</svg>
