<svg width="32" height="32" viewBox="0 0 32 32" fill="none" xmlns="http://www.w3.org/2000/svg">
<g clip-path="url(#clip0)">
<path fill-rule="evenodd" clip-rule="evenodd" d="M31.2878 3.6809L21.5808 1.27758C21.4397 1.24242 21.2922 1.24096 21.1501 1.27294L11.0103 3.54931L1.14819 1.27416C0.869873 1.20971 0.577393 1.27611 0.35376 1.45409C0.130371 1.63183 0 1.90185 0 2.18774V27.4729C0 27.9097 0.301758 28.2888 0.727539 28.3865L10.7693 30.6938C10.9058 30.7253 11.0474 30.7258 11.1838 30.6953L21.3447 28.4224L30.8372 30.7727C30.9116 30.7913 30.9873 30.8 31.0625 30.8C31.2698 30.8 31.4736 30.7314 31.6404 30.6008C31.8674 30.4231 32 30.1509 32 29.8625V4.59106C32 4.1599 31.7061 3.78441 31.2878 3.6809ZM30.125 28.6648L21.5808 26.5493C21.4399 26.5142 21.2927 26.5127 21.1509 26.5444L10.9819 28.8188L1.875 26.7263V3.36596L10.7966 5.42431C10.9333 5.45605 11.0757 5.45629 11.2126 5.42553L21.345 3.15087L30.125 5.3247V28.6648Z" fill="black"/>
<path fill-rule="evenodd" clip-rule="evenodd" d="M9.0625 10.8904C9.0625 10.3743 8.64136 9.95288 8.125 9.95288C7.60864 9.95288 7.1875 10.3743 7.1875 10.8904C7.1875 11.4067 7.60864 11.8279 8.125 11.8279C8.64136 11.8279 9.0625 11.4067 9.0625 10.8904Z" fill="black"/>
<path fill-rule="evenodd" clip-rule="evenodd" d="M19.5 19.2029C19.5 19.8748 19.7112 20.7007 20.0891 21.5618L9.95117 16.1951C10.4231 15.731 10.8184 15.1838 11.0874 14.7686C11.9719 13.4041 12.5 11.9541 12.5 10.8904C12.5 8.47803 10.5374 6.51538 8.125 6.51538C5.71265 6.51538 3.75 8.47803 3.75 10.8904C3.75 11.9541 4.27808 13.4041 5.1626 14.7686C5.63965 15.5046 6.51318 16.6541 7.5061 17.0222C7.5061 17.0222 23.1152 25.2808 23.1582 25.2959C23.3911 25.3948 23.6313 25.4529 23.875 25.4529C25.115 25.4529 26.2634 23.9668 26.8376 23.0811C27.7219 21.7166 28.25 20.2666 28.25 19.2029C28.25 16.7905 26.2874 14.8279 23.875 14.8279C21.4626 14.8279 19.5 16.7905 19.5 19.2029ZM5.625 10.8904C5.625 9.51196 6.74658 8.39038 8.125 8.39038C9.50366 8.39038 10.625 9.51196 10.625 10.8904C10.625 11.5435 10.2246 12.6091 9.60498 13.6057C8.93921 14.6763 8.34351 15.1636 8.125 15.2556C7.90625 15.1636 7.31079 14.6763 6.64502 13.6057C6.02539 12.6091 5.625 11.5435 5.625 10.8904ZM23.875 16.7029C25.2537 16.7029 26.375 17.8245 26.375 19.2029C26.375 19.856 25.9746 20.9216 25.355 21.918C24.6912 22.9854 24.0977 23.4729 23.8772 23.5669L23.7661 23.5083C23.4939 23.3335 22.9709 22.8445 22.395 21.9182C21.7754 20.9216 21.375 19.856 21.375 19.2029C21.375 17.8245 22.4966 16.7029 23.875 16.7029Z" fill="black"/>
<path fill-rule="evenodd" clip-rule="evenodd" d="M23.875 20.1404C24.3914 20.1404 24.8125 19.7192 24.8125 19.2029C24.8125 18.6865 24.3914 18.2654 23.875 18.2654C23.3586 18.2654 22.9375 18.6865 22.9375 19.2029C22.9375 19.7192 23.3586 20.1404 23.875 20.1404Z" fill="black"/>
</g>
<defs>
<clipPath id="clip0">
<rect width="32" height="32" fill="white"/>
</clipPath>
</defs>
</svg>
