<svg width="36" height="36" viewBox="0 0 36 36" fill="none" xmlns="http://www.w3.org/2000/svg">
<path d="M25.4942 0H6.03537C4.8677 0 3.91772 0.949977 3.91772 2.11765V33.8824C3.91772 35.05 4.8677 36 6.03537 36H25.4942C28.0242 36 30.0825 33.9417 30.0825 31.4118V4.58824C30.0824 2.05828 28.0242 0 25.4942 0ZM27.9647 31.4118C27.9647 32.774 26.8564 33.8824 25.4942 33.8824H6.03537V2.11765H25.4942C26.8565 2.11765 27.9648 3.22595 27.9648 4.58824V31.4118H27.9647Z" fill="black"/>
<path d="M14.2943 12.7126L16.8706 12.2531V14.7885L15.7696 15.0395C15.1995 15.1696 14.8427 15.7372 14.9727 16.3072C15.1027 16.8774 15.6703 17.2342 16.2404 17.1042L17.9295 16.7191L19.6185 17.1042C20.189 17.2343 20.7562 16.8772 20.8862 16.3073C21.0162 15.7372 20.6595 15.1696 20.0893 15.0396L18.9883 14.7885V12.2531L21.5646 12.7126C22.1408 12.8152 22.6903 12.4314 22.7929 11.8562C22.8956 11.2804 22.5121 10.7306 21.9365 10.6278L18.9883 10.102V8.18691C18.9883 7.60215 18.5142 7.12808 17.9295 7.12808C17.3447 7.12808 16.8706 7.60215 16.8706 8.18691V10.102L13.9225 10.6278C13.3468 10.7305 12.9634 11.2804 13.0661 11.8561C13.1688 12.4318 13.7187 12.8152 14.2943 12.7126Z" fill="black"/>
<path d="M24.9529 22.2706H11.047C10.4622 22.2706 9.98816 22.7446 9.98816 23.3294C9.98816 23.9141 10.4622 24.3882 11.047 24.3882H24.9529C25.5376 24.3882 26.0117 23.9141 26.0117 23.3294C26.0117 22.7446 25.5376 22.2706 24.9529 22.2706Z" fill="black"/>
<path d="M22.5529 27.4084H13.447C12.8623 27.4084 12.3882 27.8825 12.3882 28.4673C12.3882 29.052 12.8623 29.5261 13.447 29.5261H22.5529C23.1376 29.5261 23.6117 29.052 23.6117 28.4673C23.6117 27.8825 23.1376 27.4084 22.5529 27.4084Z" fill="black"/>
</svg>
