<svg width="30" height="30" viewBox="0 0 30 30" fill="none" xmlns="http://www.w3.org/2000/svg">
<path d="M15.6162 23.9002C13.9755 24.0196 12.3339 23.6799 10.8753 22.9191C9.41674 22.1582 8.19882 21.0063 7.358 19.5923L11.0428 20.2849C11.1498 20.305 11.2603 20.2818 11.3501 20.2205C11.4399 20.1591 11.5017 20.0645 11.5218 19.9576C11.5419 19.8507 11.5187 19.7402 11.4573 19.6504C11.3959 19.5605 11.3014 19.4988 11.1945 19.4787L6.66097 18.6267H6.65933C6.6368 18.6228 6.61399 18.6208 6.59112 18.6206C6.5869 18.6206 6.58245 18.6206 6.578 18.6206C6.5577 18.6214 6.53749 18.6237 6.51753 18.6274C6.51073 18.6274 6.50417 18.6288 6.49761 18.6302C6.48059 18.6345 6.46384 18.6397 6.44745 18.6459C6.43808 18.6494 6.42847 18.652 6.41933 18.6562C6.41604 18.6577 6.41253 18.6581 6.40901 18.6598C6.39753 18.6654 6.38792 18.6729 6.37714 18.6792C6.36636 18.6855 6.3612 18.6869 6.3537 18.6921C6.35136 18.6937 6.34972 18.6956 6.34761 18.6973C6.33555 18.7063 6.32405 18.716 6.31315 18.7263C6.30368 18.7337 6.29461 18.7416 6.28597 18.75C6.27706 18.7596 6.26956 18.7702 6.26253 18.7805C6.25365 18.7914 6.24543 18.8028 6.23792 18.8147C6.23229 18.8238 6.22784 18.8334 6.22315 18.8428C6.21533 18.8572 6.20845 18.8721 6.20253 18.8873C6.19948 18.8953 6.19784 18.9035 6.19526 18.9108C6.19038 18.9245 6.18632 18.9385 6.18308 18.9527L5.33112 23.4862C5.32119 23.5392 5.32179 23.5937 5.33291 23.6464C5.34403 23.6992 5.36544 23.7492 5.39591 23.7937C5.42639 23.8382 5.46533 23.8762 5.51052 23.9056C5.5557 23.935 5.60624 23.9552 5.65925 23.9651C5.68437 23.9697 5.70987 23.9721 5.73542 23.9721C5.83099 23.972 5.92352 23.9385 5.99704 23.8775C6.07055 23.8164 6.12044 23.7316 6.13808 23.6377L6.7812 20.2158C7.65292 21.6039 8.86329 22.7476 10.2985 23.5394C11.7338 24.3312 13.3468 24.745 14.986 24.742C15.2138 24.742 15.4428 24.7342 15.6729 24.7186C15.7815 24.7111 15.8826 24.6607 15.954 24.5787C16.0254 24.4966 16.0613 24.3895 16.0538 24.281C16.0463 24.1725 15.9959 24.0714 15.9139 24C15.8318 23.9285 15.7247 23.8926 15.6162 23.9002Z" fill="#575757"/>
<path d="M14.3838 6.09984C16.0245 5.98073 17.666 6.32061 19.1244 7.08142C20.5829 7.84223 21.8009 8.99394 22.642 10.4076L18.9572 9.71507C18.8503 9.69496 18.7397 9.71815 18.6499 9.77953C18.5601 9.84091 18.4983 9.93546 18.4782 10.0424C18.4581 10.1493 18.4813 10.2598 18.5427 10.3496C18.6041 10.4395 18.6986 10.5012 18.8055 10.5213L23.339 11.3733C23.3587 11.3767 23.3786 11.3785 23.3986 11.3789C23.404 11.3789 23.4089 11.3812 23.4143 11.3812C23.4519 11.3805 23.4893 11.3747 23.5254 11.3639C23.5338 11.3613 23.5418 11.358 23.5502 11.3552C23.5638 11.3503 23.5776 11.3475 23.591 11.3412C23.6062 11.333 23.6209 11.324 23.6351 11.3142C23.6386 11.3121 23.6428 11.3112 23.6463 11.3088C23.6498 11.3065 23.6503 11.3053 23.6524 11.3037C23.6645 11.2947 23.676 11.285 23.6869 11.2746C23.6964 11.2669 23.7054 11.2587 23.714 11.25C23.7229 11.2404 23.7304 11.2298 23.7375 11.2195C23.746 11.2086 23.7538 11.1972 23.7609 11.1853C23.7665 11.1762 23.771 11.1666 23.7757 11.1572C23.7835 11.1428 23.7904 11.1279 23.7963 11.1127C23.7994 11.1047 23.801 11.0965 23.8036 11.0892C23.8085 11.0755 23.8125 11.0615 23.8158 11.0473L24.6677 6.51374C24.6878 6.40683 24.6646 6.29632 24.6032 6.20652C24.5418 6.11672 24.4472 6.05499 24.3403 6.03492C24.2334 6.01484 24.1229 6.03805 24.0331 6.09946C23.9433 6.16086 23.8815 6.25542 23.8615 6.36234L23.2219 9.77718C22.2859 8.29205 20.9639 7.08924 19.3971 6.29736C17.8304 5.50548 16.078 5.15431 14.3271 5.2814C14.2734 5.28512 14.2209 5.2994 14.1726 5.3234C14.1244 5.34741 14.0814 5.38068 14.046 5.42131C14.0107 5.46194 13.9837 5.50914 13.9665 5.56022C13.9494 5.61129 13.9425 5.66524 13.9462 5.71898C13.95 5.77272 13.9642 5.8252 13.9882 5.87342C14.0122 5.92164 14.0455 5.96467 14.0861 6.00003C14.1268 6.0354 14.174 6.06242 14.2251 6.07954C14.2761 6.09666 14.3301 6.10356 14.3838 6.09984Z" fill="#575757"/>
<path d="M13.3594 12.9492V1.52344C13.3594 1.41466 13.3162 1.31033 13.2392 1.23341C13.1623 1.15649 13.058 1.11328 12.9492 1.11328H1.52344C1.41466 1.11328 1.31033 1.15649 1.23341 1.23341C1.15649 1.31033 1.11328 1.41466 1.11328 1.52344V12.9492C1.11328 13.058 1.15649 13.1623 1.23341 13.2392C1.31033 13.3162 1.41466 13.3594 1.52344 13.3594H12.9492C13.058 13.3594 13.1623 13.3162 13.2392 13.2392C13.3162 13.1623 13.3594 13.058 13.3594 12.9492ZM12.5391 12.5391H1.93359V1.93359H12.5391V12.5391Z" fill="#575757"/>
<path d="M28.4766 16.6406H17.0508C16.942 16.6406 16.8377 16.6838 16.7608 16.7608C16.6838 16.8377 16.6406 16.942 16.6406 17.0508V28.4766C16.6406 28.5853 16.6838 28.6897 16.7608 28.7666C16.8377 28.8435 16.942 28.8867 17.0508 28.8867H28.4766C28.5853 28.8867 28.6897 28.8435 28.7666 28.7666C28.8435 28.6897 28.8867 28.5853 28.8867 28.4766V17.0508C28.8867 16.942 28.8435 16.8377 28.7666 16.7608C28.6897 16.6838 28.5853 16.6406 28.4766 16.6406ZM28.0664 28.0664H17.4609V17.4609H28.0664V28.0664Z" fill="#575757"/>
<path d="M21.5186 23.928H24.0084L24.3984 24.858H25.4334L23.2809 19.7058H22.2386L20.0859 24.858H21.1284L21.5186 23.928ZM22.7636 20.9515L23.6718 23.118H21.8559L22.7636 20.9515Z" fill="#575757"/>
<path d="M10.1032 10.7812V9.84375C9.15978 9.7959 8.25594 9.44965 7.52203 8.85492C8.52773 8.0468 9.26273 6.93727 9.42516 5.79937H10.2422V4.86187H7.70508V4.04297H6.76758V4.86187H4.23047V5.79937H8.47266C8.30437 6.69 7.68469 7.56398 6.85547 8.19867C6.43637 7.70505 6.20043 7.08194 6.1875 6.43453H5.25C5.259 7.25789 5.54425 8.05438 6.06 8.69625C5.49561 8.99343 4.8696 9.15467 4.23188 9.16711V10.1046C5.10975 10.0882 5.96844 9.84495 6.72445 9.39844C7.72875 10.275 9.05976 10.7812 10.1032 10.7812Z" fill="#575757"/>
</svg>
